<svg xmlns="http://www.w3.org/2000/svg" xmlns:xlink="http://www.w3.org/1999/xlink" width="2000" zoomAndPan="magnify" viewBox="0 0 1500 749.999995" height="1000" preserveAspectRatio="xMidYMid meet" version="1.0"><defs><g/><clipPath id="2c72d97c0a"><path d="M 75 177.679688 L 483.75 177.679688 L 483.75 586.429688 L 75 586.429688 Z M 75 177.679688 " clip-rule="nonzero"/></clipPath><clipPath id="9a9b694455"><rect x="0" width="581" y="0" height="311"/></clipPath><clipPath id="fc457a2ce8"><rect x="0" width="905" y="0" height="288"/></clipPath></defs><g clip-path="url(#2c72d97c0a)"><path fill="#000000" d="M 176.296875 177.679688 L 382.746094 177.679688 C 384.402344 177.679688 386.0625 177.71875 387.714844 177.800781 C 389.371094 177.882812 391.023438 178.003906 392.675781 178.167969 C 394.324219 178.328125 395.96875 178.53125 397.609375 178.773438 C 399.25 179.019531 400.882812 179.300781 402.507812 179.625 C 404.132812 179.949219 405.75 180.3125 407.359375 180.714844 C 408.96875 181.117188 410.566406 181.558594 412.152344 182.039062 C 413.738281 182.523438 415.3125 183.042969 416.871094 183.601562 C 418.433594 184.160156 419.980469 184.753906 421.511719 185.390625 C 423.042969 186.023438 424.558594 186.695312 426.054688 187.40625 C 427.554688 188.113281 429.035156 188.859375 430.496094 189.640625 C 431.960938 190.421875 433.402344 191.238281 434.824219 192.089844 C 436.246094 192.941406 437.644531 193.828125 439.023438 194.75 C 440.402344 195.671875 441.757812 196.625 443.089844 197.613281 C 444.421875 198.601562 445.726562 199.621094 447.007812 200.671875 C 448.289062 201.722656 449.542969 202.804688 450.773438 203.917969 C 452 205.03125 453.203125 206.175781 454.375 207.347656 C 455.546875 208.519531 456.6875 209.71875 457.800781 210.949219 C 458.914062 212.175781 459.996094 213.433594 461.050781 214.714844 C 462.101562 215.996094 463.121094 217.300781 464.109375 218.632812 C 465.097656 219.964844 466.050781 221.320312 466.972656 222.699219 C 467.890625 224.078125 468.777344 225.476562 469.632812 226.898438 C 470.484375 228.320312 471.300781 229.761719 472.082031 231.226562 C 472.863281 232.6875 473.609375 234.167969 474.316406 235.664062 C 475.027344 237.164062 475.699219 238.679688 476.332031 240.210938 C 476.964844 241.742188 477.5625 243.289062 478.121094 244.851562 C 478.679688 246.410156 479.199219 247.984375 479.679688 249.570312 C 480.164062 251.15625 480.605469 252.753906 481.007812 254.363281 C 481.410156 255.972656 481.773438 257.585938 482.097656 259.214844 C 482.421875 260.839844 482.703125 262.472656 482.945312 264.113281 C 483.191406 265.753906 483.394531 267.398438 483.554688 269.046875 C 483.71875 270.695312 483.839844 272.347656 483.921875 274.003906 C 484.003906 275.660156 484.042969 277.316406 484.042969 278.976562 L 484.042969 485.425781 C 484.042969 487.082031 484.003906 488.738281 483.921875 490.394531 C 483.839844 492.050781 483.71875 493.703125 483.554688 495.355469 C 483.394531 497.003906 483.191406 498.648438 482.945312 500.289062 C 482.703125 501.929688 482.421875 503.5625 482.097656 505.1875 C 481.773438 506.8125 481.410156 508.429688 481.007812 510.039062 C 480.605469 511.644531 480.164062 513.242188 479.679688 514.828125 C 479.199219 516.417969 478.679688 517.988281 478.121094 519.550781 C 477.5625 521.113281 476.964844 522.65625 476.332031 524.191406 C 475.699219 525.722656 475.027344 527.234375 474.316406 528.734375 C 473.609375 530.234375 472.863281 531.714844 472.082031 533.175781 C 471.300781 534.636719 470.484375 536.078125 469.632812 537.5 C 468.777344 538.921875 467.890625 540.324219 466.972656 541.703125 C 466.050781 543.082031 465.097656 544.4375 464.109375 545.765625 C 463.121094 547.097656 462.101562 548.40625 461.050781 549.6875 C 459.996094 550.96875 458.914062 552.222656 457.800781 553.453125 C 456.6875 554.679688 455.546875 555.878906 454.375 557.050781 C 453.203125 558.226562 452 559.367188 450.773438 560.480469 C 449.542969 561.59375 448.289062 562.675781 447.007812 563.726562 C 445.726562 564.78125 444.421875 565.800781 443.089844 566.789062 C 441.757812 567.773438 440.402344 568.730469 439.023438 569.648438 C 437.644531 570.570312 436.246094 571.457031 434.824219 572.308594 C 433.402344 573.164062 431.960938 573.980469 430.496094 574.761719 C 429.035156 575.542969 427.554688 576.289062 426.054688 576.996094 C 424.558594 577.703125 423.042969 578.375 421.511719 579.011719 C 419.980469 579.644531 418.433594 580.242188 416.871094 580.800781 C 415.3125 581.359375 413.738281 581.878906 412.152344 582.359375 C 410.566406 582.839844 408.96875 583.285156 407.359375 583.6875 C 405.75 584.089844 404.132812 584.453125 402.507812 584.773438 C 400.882812 585.097656 399.25 585.382812 397.609375 585.625 C 395.96875 585.867188 394.324219 586.070312 392.675781 586.234375 C 391.023438 586.398438 389.371094 586.519531 387.714844 586.601562 C 386.0625 586.679688 384.402344 586.722656 382.746094 586.722656 L 176.296875 586.722656 C 174.640625 586.722656 172.980469 586.679688 171.328125 586.601562 C 169.671875 586.519531 168.019531 586.398438 166.367188 586.234375 C 164.71875 586.070312 163.074219 585.867188 161.433594 585.625 C 159.792969 585.382812 158.160156 585.097656 156.535156 584.777344 C 154.910156 584.453125 153.292969 584.089844 151.683594 583.6875 C 150.074219 583.285156 148.476562 582.839844 146.890625 582.359375 C 145.304688 581.878906 143.730469 581.359375 142.171875 580.800781 C 140.609375 580.242188 139.0625 579.644531 137.53125 579.011719 C 136 578.375 134.484375 577.703125 132.988281 576.996094 C 131.488281 576.289062 130.007812 575.542969 128.546875 574.761719 C 127.082031 573.980469 125.640625 573.164062 124.21875 572.308594 C 122.796875 571.457031 121.398438 570.570312 120.019531 569.648438 C 118.640625 568.730469 117.285156 567.773438 115.953125 566.789062 C 114.621094 565.800781 113.316406 564.78125 112.035156 563.726562 C 110.753906 562.675781 109.5 561.59375 108.269531 560.480469 C 107.042969 559.367188 105.839844 558.226562 104.667969 557.050781 C 103.496094 555.878906 102.355469 554.679688 101.242188 553.453125 C 100.128906 552.222656 99.046875 550.96875 97.992188 549.6875 C 96.941406 548.40625 95.921875 547.097656 94.933594 545.765625 C 93.945312 544.4375 92.992188 543.082031 92.070312 541.703125 C 91.152344 540.324219 90.265625 538.921875 89.410156 537.5 C 88.558594 536.078125 87.742188 534.636719 86.960938 533.175781 C 86.179688 531.714844 85.433594 530.234375 84.726562 528.734375 C 84.015625 527.234375 83.34375 525.722656 82.710938 524.191406 C 82.078125 522.65625 81.480469 521.113281 80.921875 519.550781 C 80.363281 517.988281 79.84375 516.417969 79.363281 514.828125 C 78.878906 513.242188 78.4375 511.644531 78.035156 510.039062 C 77.632812 508.429688 77.269531 506.8125 76.945312 505.1875 C 76.621094 503.5625 76.339844 501.929688 76.097656 500.289062 C 75.851562 498.648438 75.648438 497.003906 75.488281 495.355469 C 75.324219 493.703125 75.203125 492.050781 75.121094 490.394531 C 75.039062 488.738281 75 487.082031 75 485.425781 L 75 278.976562 C 75 277.316406 75.039062 275.660156 75.121094 274.003906 C 75.203125 272.347656 75.324219 270.695312 75.488281 269.046875 C 75.648438 267.398438 75.851562 265.753906 76.097656 264.113281 C 76.339844 262.472656 76.621094 260.839844 76.945312 259.214844 C 77.269531 257.585938 77.632812 255.972656 78.035156 254.363281 C 78.4375 252.753906 78.878906 251.15625 79.363281 249.570312 C 79.84375 247.984375 80.363281 246.410156 80.921875 244.851562 C 81.480469 243.289062 82.078125 241.742188 82.710938 240.210938 C 83.34375 238.679688 84.015625 237.164062 84.726562 235.664062 C 85.433594 234.167969 86.179688 232.6875 86.960938 231.226562 C 87.742188 229.761719 88.558594 228.320312 89.410156 226.898438 C 90.265625 225.476562 91.152344 224.078125 92.070312 222.699219 C 92.992188 221.320312 93.945312 219.964844 94.933594 218.632812 C 95.921875 217.300781 96.941406 215.996094 97.992188 214.714844 C 99.046875 213.433594 100.128906 212.175781 101.242188 210.949219 C 102.355469 209.71875 103.496094 208.519531 104.667969 207.347656 C 105.839844 206.175781 107.042969 205.03125 108.269531 203.917969 C 109.5 202.804688 110.753906 201.722656 112.035156 200.671875 C 113.316406 199.621094 114.621094 198.601562 115.953125 197.613281 C 117.285156 196.625 118.640625 195.671875 120.019531 194.75 C 121.398438 193.828125 122.796875 192.941406 124.21875 192.089844 C 125.640625 191.238281 127.082031 190.421875 128.546875 189.640625 C 130.007812 188.859375 131.488281 188.113281 132.988281 187.40625 C 134.484375 186.695312 136 186.023438 137.53125 185.390625 C 139.0625 184.753906 140.609375 184.160156 142.171875 183.601562 C 143.730469 183.042969 145.304688 182.523438 146.890625 182.039062 C 148.476562 181.558594 150.074219 181.117188 151.683594 180.714844 C 153.292969 180.3125 154.910156 179.949219 156.535156 179.625 C 158.160156 179.300781 159.792969 179.019531 161.433594 178.773438 C 163.074219 178.53125 164.71875 178.328125 166.367188 178.167969 C 168.019531 178.003906 169.671875 177.882812 171.328125 177.800781 C 172.980469 177.71875 174.640625 177.679688 176.296875 177.679688 Z M 176.296875 177.679688 " fill-opacity="1" fill-rule="nonzero"/></g><path fill="#00affa" d="M 348 228.355469 L 176.667969 364.1875 L 281.933594 382.925781 L 185.542969 524.546875 L 401.492188 337.441406 L 293.519531 332.019531 Z M 348 228.355469 " fill-opacity="1" fill-rule="nonzero"/><path fill="#00affa" d="M 344.300781 224.167969 C 325.074219 239.449219 305.84375 254.613281 286.738281 269.894531 C 255.925781 294.300781 225.109375 318.707031 194.296875 343.234375 C 187.269531 348.78125 180.121094 354.453125 173.09375 359.996094 C 171.738281 361.105469 163.480469 371.214844 169.644531 372.324219 C 200.335938 377.746094 231.027344 383.292969 261.71875 388.71875 C 266.15625 389.457031 270.46875 390.320312 274.90625 391.058594 C 274.785156 388.347656 274.785156 385.636719 274.660156 383.046875 C 246.433594 424.339844 218.332031 465.753906 190.105469 507.046875 C 186.160156 512.960938 182.09375 518.753906 178.148438 524.671875 C 176.546875 527.015625 175.066406 531.203125 178.394531 532.683594 C 181.847656 534.285156 186.777344 530.835938 189.117188 528.738281 C 213.648438 507.664062 237.929688 486.460938 262.335938 465.382812 C 301.039062 431.859375 339.742188 398.332031 378.320312 364.804688 C 387.195312 357.039062 396.070312 349.398438 405.066406 341.632812 C 407.78125 339.289062 414.804688 329.429688 406.792969 329.058594 C 375.363281 327.457031 344.054688 325.976562 312.625 324.375 C 308.0625 324.128906 303.503906 323.882812 298.820312 323.636719 C 299.804688 325.730469 300.914062 327.828125 301.898438 329.800781 C 317.800781 299.476562 333.699219 269.28125 349.601562 238.957031 C 351.820312 234.644531 354.160156 230.328125 356.378906 226.140625 C 358.597656 221.949219 355.148438 219.359375 351.203125 220.222656 C 346.027344 221.332031 341.714844 226.015625 339.371094 230.574219 C 323.46875 260.898438 307.570312 291.097656 291.667969 321.417969 C 289.449219 325.730469 287.109375 330.046875 284.890625 334.238281 C 283.289062 337.195312 284.644531 340.277344 287.972656 340.398438 C 319.402344 342.003906 350.710938 343.480469 382.140625 345.082031 C 386.703125 345.332031 391.261719 345.578125 395.945312 345.824219 C 396.5625 341.632812 397.054688 337.441406 397.671875 333.25 C 373.265625 354.453125 348.863281 375.527344 324.578125 396.730469 C 285.875 430.253906 247.171875 463.78125 208.59375 497.308594 C 199.71875 505.074219 190.84375 512.714844 181.847656 520.480469 C 185.542969 521.835938 189.242188 523.191406 192.816406 524.546875 C 220.917969 483.132812 249.144531 441.84375 277.25 400.425781 C 281.191406 394.511719 285.261719 388.71875 289.203125 382.800781 C 290.3125 381.199219 292.65625 375.40625 288.957031 374.789062 C 258.265625 369.367188 227.574219 363.820312 196.882812 358.394531 C 192.445312 357.65625 188.132812 356.792969 183.695312 356.054688 C 182.585938 360.121094 181.351562 364.3125 180.242188 368.378906 C 199.472656 353.09375 218.699219 337.933594 237.929688 322.652344 C 268.742188 298.246094 299.558594 273.839844 330.375 249.3125 C 337.398438 243.765625 344.546875 238.09375 351.574219 232.546875 C 354.160156 230.574219 359.214844 224.535156 356.257812 221.085938 C 353.300781 217.632812 346.644531 222.316406 344.300781 224.167969 Z M 344.300781 224.167969 " fill-opacity="1" fill-rule="nonzero"/><g transform="matrix(1, 0, 0, 1, 515, 126)"><g clip-path="url(#9a9b694455)"><g fill="#000000" fill-opacity="1"><g transform="translate(0.554316, 246.233165)"><g><path d="M 149.453125 -92.203125 C 159.242188 -88.992188 167.007812 -83.628906 172.75 -76.109375 C 178.5 -68.597656 181.375 -59.269531 181.375 -48.125 C 181.375 -32.757812 175.460938 -20.894531 163.640625 -12.53125 C 151.816406 -4.175781 134.59375 0 111.96875 0 L 23.8125 0 L 23.8125 -177.3125 L 106.890625 -177.3125 C 127.835938 -177.3125 143.96875 -173.21875 155.28125 -165.03125 C 166.59375 -156.84375 172.25 -145.570312 172.25 -131.21875 C 172.25 -122.4375 170.222656 -114.664062 166.171875 -107.90625 C 162.117188 -101.15625 156.546875 -95.921875 149.453125 -92.203125 Z M 56.734375 -151.484375 L 56.734375 -102.59375 L 103.34375 -102.59375 C 114.832031 -102.59375 123.65625 -104.660156 129.8125 -108.796875 C 135.976562 -112.929688 139.0625 -118.96875 139.0625 -126.90625 C 139.0625 -135.007812 135.976562 -141.128906 129.8125 -145.265625 C 123.65625 -149.410156 114.832031 -151.484375 103.34375 -151.484375 Z M 109.9375 -25.84375 C 135.4375 -25.84375 148.1875 -34.367188 148.1875 -51.421875 C 148.1875 -68.472656 135.4375 -77 109.9375 -77 L 56.734375 -77 L 56.734375 -25.84375 Z M 109.9375 -25.84375 "/></g></g></g><g fill="#000000" fill-opacity="1"><g transform="translate(181.922474, 246.233165)"><g><path d="M 81.5625 1.765625 C 67.882812 1.765625 55.554688 -1.1875 44.578125 -7.09375 C 33.609375 -13 25.039062 -21.226562 18.875 -31.78125 C 12.707031 -42.34375 9.625 -54.296875 9.625 -67.640625 C 9.625 -80.972656 12.707031 -92.875 18.875 -103.34375 C 25.039062 -113.820312 33.609375 -122.015625 44.578125 -127.921875 C 55.554688 -133.828125 67.882812 -136.78125 81.5625 -136.78125 C 95.414062 -136.78125 107.828125 -133.828125 118.796875 -127.921875 C 129.773438 -122.015625 138.347656 -113.820312 144.515625 -103.34375 C 150.679688 -92.875 153.765625 -80.972656 153.765625 -67.640625 C 153.765625 -54.296875 150.679688 -42.34375 144.515625 -31.78125 C 138.347656 -21.226562 129.773438 -13 118.796875 -7.09375 C 107.828125 -1.1875 95.414062 1.765625 81.5625 1.765625 Z M 81.5625 -25.328125 C 93.21875 -25.328125 102.84375 -29.210938 110.4375 -36.984375 C 118.039062 -44.753906 121.84375 -54.972656 121.84375 -67.640625 C 121.84375 -80.304688 118.039062 -90.519531 110.4375 -98.28125 C 102.84375 -106.050781 93.21875 -109.9375 81.5625 -109.9375 C 69.914062 -109.9375 60.332031 -106.050781 52.8125 -98.28125 C 45.300781 -90.519531 41.546875 -80.304688 41.546875 -67.640625 C 41.546875 -54.972656 45.300781 -44.753906 52.8125 -36.984375 C 60.332031 -29.210938 69.914062 -25.328125 81.5625 -25.328125 Z M 81.5625 -25.328125 "/></g></g></g><g fill="#000000" fill-opacity="1"><g transform="translate(333.906877, 246.233165)"><g><path d="M 62.5625 1.765625 C 51.59375 1.765625 40.867188 0.332031 30.390625 -2.53125 C 19.921875 -5.40625 11.5625 -9.035156 5.3125 -13.421875 L 17.484375 -37.484375 C 23.554688 -33.429688 30.859375 -30.179688 39.390625 -27.734375 C 47.921875 -25.285156 56.320312 -24.0625 64.59375 -24.0625 C 83.507812 -24.0625 92.96875 -29.046875 92.96875 -39.015625 C 92.96875 -43.742188 90.5625 -47.035156 85.75 -48.890625 C 80.9375 -50.742188 73.207031 -52.515625 62.5625 -54.203125 C 51.414062 -55.890625 42.335938 -57.832031 35.328125 -60.03125 C 28.328125 -62.226562 22.25 -66.070312 17.09375 -71.5625 C 11.945312 -77.050781 9.375 -84.691406 9.375 -94.484375 C 9.375 -107.316406 14.734375 -117.570312 25.453125 -125.25 C 36.179688 -132.9375 50.664062 -136.78125 68.90625 -136.78125 C 78.1875 -136.78125 87.472656 -135.722656 96.765625 -133.609375 C 106.054688 -131.503906 113.65625 -128.679688 119.5625 -125.140625 L 107.40625 -101.078125 C 95.914062 -107.828125 82.992188 -111.203125 68.640625 -111.203125 C 59.359375 -111.203125 52.3125 -109.804688 47.5 -107.015625 C 42.6875 -104.234375 40.28125 -100.5625 40.28125 -96 C 40.28125 -90.9375 42.851562 -87.347656 48 -85.234375 C 53.15625 -83.128906 61.132812 -81.144531 71.9375 -79.28125 C 82.75 -77.59375 91.613281 -75.648438 98.53125 -73.453125 C 105.457031 -71.265625 111.410156 -67.550781 116.390625 -62.3125 C 121.378906 -57.082031 123.875 -49.648438 123.875 -40.015625 C 123.875 -27.359375 118.382812 -17.226562 107.40625 -9.625 C 96.425781 -2.03125 81.476562 1.765625 62.5625 1.765625 Z M 62.5625 1.765625 "/></g></g></g><g fill="#000000" fill-opacity="1"><g transform="translate(452.961272, 246.233165)"><g><path d="M 62.5625 1.765625 C 51.59375 1.765625 40.867188 0.332031 30.390625 -2.53125 C 19.921875 -5.40625 11.5625 -9.035156 5.3125 -13.421875 L 17.484375 -37.484375 C 23.554688 -33.429688 30.859375 -30.179688 39.390625 -27.734375 C 47.921875 -25.285156 56.320312 -24.0625 64.59375 -24.0625 C 83.507812 -24.0625 92.96875 -29.046875 92.96875 -39.015625 C 92.96875 -43.742188 90.5625 -47.035156 85.75 -48.890625 C 80.9375 -50.742188 73.207031 -52.515625 62.5625 -54.203125 C 51.414062 -55.890625 42.335938 -57.832031 35.328125 -60.03125 C 28.328125 -62.226562 22.25 -66.070312 17.09375 -71.5625 C 11.945312 -77.050781 9.375 -84.691406 9.375 -94.484375 C 9.375 -107.316406 14.734375 -117.570312 25.453125 -125.25 C 36.179688 -132.9375 50.664062 -136.78125 68.90625 -136.78125 C 78.1875 -136.78125 87.472656 -135.722656 96.765625 -133.609375 C 106.054688 -131.503906 113.65625 -128.679688 119.5625 -125.140625 L 107.40625 -101.078125 C 95.914062 -107.828125 82.992188 -111.203125 68.640625 -111.203125 C 59.359375 -111.203125 52.3125 -109.804688 47.5 -107.015625 C 42.6875 -104.234375 40.28125 -100.5625 40.28125 -96 C 40.28125 -90.9375 42.851562 -87.347656 48 -85.234375 C 53.15625 -83.128906 61.132812 -81.144531 71.9375 -79.28125 C 82.75 -77.59375 91.613281 -75.648438 98.53125 -73.453125 C 105.457031 -71.265625 111.410156 -67.550781 116.390625 -62.3125 C 121.378906 -57.082031 123.875 -49.648438 123.875 -40.015625 C 123.875 -27.359375 118.382812 -17.226562 107.40625 -9.625 C 96.425781 -2.03125 81.476562 1.765625 62.5625 1.765625 Z M 62.5625 1.765625 "/></g></g></g></g></g><g transform="matrix(1, 0, 0, 1, 515, 336)"><g clip-path="url(#fc457a2ce8)"><g fill="#000000" fill-opacity="1"><g transform="translate(0.554316, 227.735812)"><g><path d="M 142.671875 -15 L 142.671875 0 L 26.703125 0 L 26.703125 -163.984375 L 139.15625 -163.984375 L 139.15625 -149 L 44.046875 -149 L 44.046875 -90.65625 L 128.84375 -90.65625 L 128.84375 -75.90625 L 44.046875 -75.90625 L 44.046875 -15 Z M 142.671875 -15 "/></g></g></g><g fill="#000000" fill-opacity="1"><g transform="translate(146.740391, 227.735812)"><g><path d="M 23.1875 -173.828125 L 39.828125 -173.828125 L 39.828125 0 L 23.1875 0 Z M 23.1875 -173.828125 "/></g></g></g><g fill="#000000" fill-opacity="1"><g transform="translate(199.2173, 227.735812)"><g><path d="M 130.484375 -56.453125 L 27.40625 -56.453125 C 28.34375 -43.648438 33.257812 -33.304688 42.15625 -25.421875 C 51.0625 -17.535156 62.3125 -13.59375 75.90625 -13.59375 C 83.550781 -13.59375 90.578125 -14.957031 96.984375 -17.6875 C 103.390625 -20.414062 108.9375 -24.4375 113.625 -29.75 L 122.984375 -18.96875 C 117.523438 -12.414062 110.691406 -7.421875 102.484375 -3.984375 C 94.285156 -0.546875 85.269531 1.171875 75.4375 1.171875 C 62.78125 1.171875 51.570312 -1.519531 41.8125 -6.90625 C 32.050781 -12.300781 24.4375 -19.757812 18.96875 -29.28125 C 13.507812 -38.8125 10.78125 -49.585938 10.78125 -61.609375 C 10.78125 -73.640625 13.394531 -84.414062 18.625 -93.9375 C 23.851562 -103.46875 31.035156 -110.882812 40.171875 -116.1875 C 49.304688 -121.5 59.578125 -124.15625 70.984375 -124.15625 C 82.378906 -124.15625 92.609375 -121.5 101.671875 -116.1875 C 110.734375 -110.882812 117.835938 -103.507812 122.984375 -94.0625 C 128.140625 -84.613281 130.71875 -73.796875 130.71875 -61.609375 Z M 70.984375 -109.875 C 59.109375 -109.875 49.148438 -106.082031 41.109375 -98.5 C 33.066406 -90.925781 28.5 -81.050781 27.40625 -68.875 L 114.796875 -68.875 C 113.703125 -81.050781 109.128906 -90.925781 101.078125 -98.5 C 93.035156 -106.082031 83.003906 -109.875 70.984375 -109.875 Z M 70.984375 -109.875 "/></g></g></g><g fill="#000000" fill-opacity="1"><g transform="translate(330.175617, 227.735812)"><g><path d="M 74.265625 1.171875 C 62.078125 1.171875 51.179688 -1.484375 41.578125 -6.796875 C 31.972656 -12.109375 24.4375 -19.566406 18.96875 -29.171875 C 13.507812 -38.773438 10.78125 -49.585938 10.78125 -61.609375 C 10.78125 -73.640625 13.507812 -84.414062 18.96875 -93.9375 C 24.4375 -103.46875 31.972656 -110.882812 41.578125 -116.1875 C 51.179688 -121.5 62.078125 -124.15625 74.265625 -124.15625 C 84.878906 -124.15625 94.363281 -122.085938 102.71875 -117.953125 C 111.082031 -113.816406 117.679688 -107.765625 122.515625 -99.796875 L 110.109375 -91.359375 C 106.046875 -97.453125 100.890625 -102.019531 94.640625 -105.0625 C 88.390625 -108.113281 81.597656 -109.640625 74.265625 -109.640625 C 65.359375 -109.640625 57.351562 -107.644531 50.25 -103.65625 C 43.144531 -99.675781 37.597656 -94.015625 33.609375 -86.671875 C 29.628906 -79.335938 27.640625 -70.984375 27.640625 -61.609375 C 27.640625 -52.085938 29.628906 -43.691406 33.609375 -36.421875 C 37.597656 -29.160156 43.144531 -23.539062 50.25 -19.5625 C 57.351562 -15.582031 65.359375 -13.59375 74.265625 -13.59375 C 81.597656 -13.59375 88.390625 -15.070312 94.640625 -18.03125 C 100.890625 -21 106.046875 -25.53125 110.109375 -31.625 L 122.515625 -23.1875 C 117.679688 -15.226562 111.046875 -9.175781 102.609375 -5.03125 C 94.171875 -0.894531 84.722656 1.171875 74.265625 1.171875 Z M 74.265625 1.171875 "/></g></g></g><g fill="#000000" fill-opacity="1"><g transform="translate(451.528749, 227.735812)"><g><path d="M 88.078125 -7.5 C 84.960938 -4.6875 81.097656 -2.535156 76.484375 -1.046875 C 71.878906 0.429688 67.078125 1.171875 62.078125 1.171875 C 50.523438 1.171875 41.625 -1.945312 35.375 -8.1875 C 29.125 -14.4375 26 -23.265625 26 -34.671875 L 26 -109.171875 L 3.984375 -109.171875 L 3.984375 -123.21875 L 26 -123.21875 L 26 -150.171875 L 42.640625 -150.171875 L 42.640625 -123.21875 L 80.125 -123.21875 L 80.125 -109.171875 L 42.640625 -109.171875 L 42.640625 -35.609375 C 42.640625 -28.265625 44.472656 -22.679688 48.140625 -18.859375 C 51.804688 -15.035156 57.078125 -13.125 63.953125 -13.125 C 67.390625 -13.125 70.707031 -13.671875 73.90625 -14.765625 C 77.113281 -15.859375 79.890625 -17.414062 82.234375 -19.4375 Z M 88.078125 -7.5 "/></g></g></g><g fill="#000000" fill-opacity="1"><g transform="translate(536.101038, 227.735812)"><g><path d="M 39.125 -99.09375 C 43.03125 -107.375 48.847656 -113.617188 56.578125 -117.828125 C 64.304688 -122.046875 73.867188 -124.15625 85.265625 -124.15625 L 85.265625 -108 L 81.296875 -108.234375 C 68.328125 -108.234375 58.171875 -104.25 50.828125 -96.28125 C 43.492188 -88.3125 39.828125 -77.144531 39.828125 -62.78125 L 39.828125 0 L 23.1875 0 L 23.1875 -123.21875 L 39.125 -123.21875 Z M 39.125 -99.09375 "/></g></g></g><g fill="#000000" fill-opacity="1"><g transform="translate(619.501953, 227.735812)"><g><path d="M 23.1875 -123.21875 L 39.828125 -123.21875 L 39.828125 0 L 23.1875 0 Z M 31.625 -150.171875 C 28.1875 -150.171875 25.296875 -151.335938 22.953125 -153.671875 C 20.609375 -156.015625 19.4375 -158.828125 19.4375 -162.109375 C 19.4375 -165.234375 20.609375 -167.96875 22.953125 -170.3125 C 25.296875 -172.65625 28.1875 -173.828125 31.625 -173.828125 C 35.0625 -173.828125 37.953125 -172.691406 40.296875 -170.421875 C 42.640625 -168.160156 43.8125 -165.46875 43.8125 -162.34375 C 43.8125 -158.90625 42.640625 -156.015625 40.296875 -153.671875 C 37.953125 -151.335938 35.0625 -150.171875 31.625 -150.171875 Z M 31.625 -150.171875 "/></g></g></g><g fill="#000000" fill-opacity="1"><g transform="translate(671.97885, 227.735812)"><g><path d="M 74.265625 1.171875 C 62.078125 1.171875 51.179688 -1.484375 41.578125 -6.796875 C 31.972656 -12.109375 24.4375 -19.566406 18.96875 -29.171875 C 13.507812 -38.773438 10.78125 -49.585938 10.78125 -61.609375 C 10.78125 -73.640625 13.507812 -84.414062 18.96875 -93.9375 C 24.4375 -103.46875 31.972656 -110.882812 41.578125 -116.1875 C 51.179688 -121.5 62.078125 -124.15625 74.265625 -124.15625 C 84.878906 -124.15625 94.363281 -122.085938 102.71875 -117.953125 C 111.082031 -113.816406 117.679688 -107.765625 122.515625 -99.796875 L 110.109375 -91.359375 C 106.046875 -97.453125 100.890625 -102.019531 94.640625 -105.0625 C 88.390625 -108.113281 81.597656 -109.640625 74.265625 -109.640625 C 65.359375 -109.640625 57.351562 -107.644531 50.25 -103.65625 C 43.144531 -99.675781 37.597656 -94.015625 33.609375 -86.671875 C 29.628906 -79.335938 27.640625 -70.984375 27.640625 -61.609375 C 27.640625 -52.085938 29.628906 -43.691406 33.609375 -36.421875 C 37.597656 -29.160156 43.144531 -23.539062 50.25 -19.5625 C 57.351562 -15.582031 65.359375 -13.59375 74.265625 -13.59375 C 81.597656 -13.59375 88.390625 -15.070312 94.640625 -18.03125 C 100.890625 -21 106.046875 -25.53125 110.109375 -31.625 L 122.515625 -23.1875 C 117.679688 -15.226562 111.046875 -9.175781 102.609375 -5.03125 C 94.171875 -0.894531 84.722656 1.171875 74.265625 1.171875 Z M 74.265625 1.171875 "/></g></g></g><g fill="#000000" fill-opacity="1"><g transform="translate(793.331981, 227.735812)"><g><path d="M 56.21875 1.171875 C 46.226562 1.171875 36.664062 -0.269531 27.53125 -3.15625 C 18.394531 -6.050781 11.25 -9.6875 6.09375 -14.0625 L 13.59375 -27.171875 C 18.738281 -23.109375 25.21875 -19.789062 33.03125 -17.21875 C 40.84375 -14.644531 48.960938 -13.359375 57.390625 -13.359375 C 68.640625 -13.359375 76.957031 -15.113281 82.34375 -18.625 C 87.726562 -22.132812 90.421875 -27.09375 90.421875 -33.5 C 90.421875 -38.03125 88.9375 -41.582031 85.96875 -44.15625 C 83.007812 -46.738281 79.265625 -48.691406 74.734375 -50.015625 C 70.203125 -51.335938 64.1875 -52.625 56.6875 -53.875 C 46.695312 -55.75 38.65625 -57.660156 32.5625 -59.609375 C 26.46875 -61.566406 21.273438 -64.890625 16.984375 -69.578125 C 12.691406 -74.265625 10.546875 -80.742188 10.546875 -89.015625 C 10.546875 -99.328125 14.835938 -107.757812 23.421875 -114.3125 C 32.015625 -120.875 43.960938 -124.15625 59.265625 -124.15625 C 67.234375 -124.15625 75.195312 -123.097656 83.15625 -120.984375 C 91.125 -118.878906 97.6875 -116.113281 102.84375 -112.6875 L 95.578125 -99.328125 C 85.429688 -106.359375 73.328125 -109.875 59.265625 -109.875 C 48.648438 -109.875 40.644531 -108 35.25 -104.25 C 29.863281 -100.5 27.171875 -95.578125 27.171875 -89.484375 C 27.171875 -84.804688 28.691406 -81.0625 31.734375 -78.25 C 34.785156 -75.4375 38.578125 -73.363281 43.109375 -72.03125 C 47.640625 -70.707031 53.882812 -69.34375 61.84375 -67.9375 C 71.6875 -66.0625 79.570312 -64.1875 85.5 -62.3125 C 91.4375 -60.4375 96.515625 -57.234375 100.734375 -52.703125 C 104.953125 -48.179688 107.0625 -41.9375 107.0625 -33.96875 C 107.0625 -23.1875 102.570312 -14.632812 93.59375 -8.3125 C 84.613281 -1.988281 72.15625 1.171875 56.21875 1.171875 Z M 56.21875 1.171875 "/></g></g></g></g></g></svg>